<svg width="215" height="33" fill="none" xmlns="http://www.w3.org/2000/svg"><path d="M10.6 16.2H19c1.3 0 2.4-.4 3.3-1.3.9-.8 1.3-2 1.3-3.5 0-1.1-.4-2.1-1.4-3-.9-1-2-1.4-3.2-1.4H7v25.2H5.6V5.6H19c1.6 0 3 .6 4.2 1.8a5.5 5.5 0 011.8 4 5.9 5.9 0 01-6 6.2h-8.4v-1.4zm0 2.8H19a7.3 7.3 0 007.4-7.6c0-1.9-.7-3.6-2.2-5A7.1 7.1 0 0019 4.2H4.2v28H2.8V2.8H19c1.6 0 3 .4 4.4 1.2a9 9 0 013.2 3.2 8 8 0 011.2 4.2 8.7 8.7 0 01-2.6 6.4 8.5 8.5 0 01-6.2 2.6h-8.4V19zm0 2.8H19a10.1 10.1 0 008.8-5 10.4 10.4 0 001.4-5.4 9.3 9.3 0 00-1.4-5 10.4 10.4 0 00-8.8-5H1.4v30.8H0V0h19c2 0 4 .5 5.8 1.6A11.7 11.7 0 0129 5.8a10.7 10.7 0 011.6 5.6c0 2.3-.5 4.3-1.5 6.1a10.8 10.8 0 01-4 4.1l3.6 10.6h-1.4l-3.5-10-1.2.5 3.3 9.5h-1.5L21.2 23l-1.2.2 3 9h-1.5l-3-9h-1.3l2.9 9h-1.5l-2.9-9h-5.1v-1.4zm-.8 10.4H8.4V8.4H19c.9 0 1.7.3 2.3 1 .6.5 1 1.2 1 2 0 2.3-1.1 3.4-3.3 3.4h-8.4v-1.4H19c.6 0 1-.1 1.3-.4.4-.3.5-.8.5-1.6 0-.4-.1-.8-.5-1.1a1.8 1.8 0 00-1.3-.5H9.8v22.4zm30.9 0h-1.4V0h1.4v32.2zm-2.8 0h-1.4V0h1.4v32.2zm-2.8 0h-1.5V0H35v32.2zm8.4-7h14.9v1.4h-15V28h15v1.4h-15v1.4h15v1.4H42V0h16.3v1.4h-15v1.4h15v1.4h-15v1.4h15V7h-15v5.6h7.7V14h-7.6v1.4H51v1.4h-7.6v1.4H51v1.4h-7.6v5.6zM86.2 21c0-.5-.1-.8-.5-1-.3-.2-.7-.3-1.3-.3h-9v-1.4h9c2.2 0 3.2 1 3.2 2.7 0 1-.3 1.7-.9 2.2-.5.4-1.3.6-2.3.6h-9v-1.4h9c1.2 0 1.8-.4 1.8-1.4zM74.6 32.2h-1.4V8.4h11.2c1 0 1.7.3 2.3.8.6.6 1 1.2 1 2 0 1.1-.4 1.9-1 2.4a3.6 3.6 0 01-2.3.7h-9v-1.5h9c1.2 0 1.8-.5 1.8-1.6 0-.4-.1-.7-.5-1a2 2 0 00-1.3-.4h-9.8v22.4zm.8-16.6h9c1.3 0 2.4-.3 3.3-1a4.1 4.1 0 001.3-3.4c0-1-.4-2-1.4-3A4.6 4.6 0 0084.4 7H71.8v25.2h-1.4V5.6h14c1.6 0 3 .6 4.2 1.7a5.2 5.2 0 011.8 4 5.7 5.7 0 01-3 5c2 .8 3 2.3 3 4.5 0 1.8-.6 3.2-1.7 4.3a6.1 6.1 0 01-4.3 1.5h-9v-1.4h9c1.3 0 2.4-.3 3.3-1.1a4.1 4.1 0 001.3-3.3c0-1-.3-1.8-1-2.5a4.4 4.4 0 00-3.6-1.2h-9v-1.4zm17.8-4.4c0 1.9-.6 3.5-1.9 5a6.8 6.8 0 012 4.6 8.5 8.5 0 01-4.5 7.6 9 9 0 01-4.4 1h-9V28h9a7.4 7.4 0 005.2-2 6.8 6.8 0 002.2-5.2c0-.8-.2-1.6-.6-2.5a4.7 4.7 0 00-1.5-2 6.6 6.6 0 002.1-5c0-2-.7-3.6-2.2-5a7.3 7.3 0 00-5.2-2.1H69v28h-1.4V2.8h16.8c1.6 0 3 .4 4.4 1.2A8.7 8.7 0 0192 7a7.8 7.8 0 011.2 4.2zm-.3 5a8.2 8.2 0 001.7-5 9.1 9.1 0 00-1.4-4.8 10 10 0 00-3.7-3.6 10 10 0 00-5-1.4H66.1v30.8h-1.4V0h19.6c2 0 4 .5 5.8 1.5a11.5 11.5 0 014.2 4.2 10.5 10.5 0 011.6 5.5c0 2-.5 3.6-1.6 5a7.7 7.7 0 011.6 4.6c0 1.8-.3 3.4-.9 4.8a10.3 10.3 0 01-2.5 3.6 11.7 11.7 0 01-8.2 3h-9v-1.4h9a10.3 10.3 0 007.2-2.8 9.8 9.8 0 002.2-3.2 9.6 9.6 0 00.8-4 7.1 7.1 0 00-.4-2.2 6.8 6.8 0 00-1.3-2.4zm16.9 0h8.4c1.3 0 2.4-.4 3.3-1.3.9-.8 1.3-2 1.3-3.5 0-1.1-.4-2.1-1.4-3-1-1-2-1.4-3.2-1.4h-12v25.2h-1.4V5.6h13.4c1.6 0 3 .6 4.2 1.8a5.5 5.5 0 011.8 4 5.9 5.9 0 01-6 6.2h-8.4v-1.4zm0 2.8h8.4a7.3 7.3 0 007.4-7.6c0-1.9-.7-3.6-2.2-5a7.1 7.1 0 00-5.2-2.2h-14.8v28H102V2.8h16.2c1.6 0 3 .4 4.4 1.2a9 9 0 013.2 3.2 8 8 0 011.2 4.2c0 2.6-.8 4.7-2.6 6.4a8.5 8.5 0 01-6.2 2.6h-8.4V19zm0 2.8h8.4a10.1 10.1 0 008.8-5 10.4 10.4 0 001.4-5.4 9.3 9.3 0 00-1.4-5 10.4 10.4 0 00-8.8-5h-17.6v30.8h-1.4V0h19c2 0 4 .5 5.8 1.6a11.7 11.7 0 014.2 4.2 10.7 10.7 0 011.6 5.6c0 2.3-.5 4.3-1.5 6.1a10.8 10.8 0 01-4 4.1l3.6 10.6h-1.5l-3.4-10-1.2.5 3.2 9.5h-1.4l-3.2-9.2-1.3.2 3 9h-1.4l-3-9h-1.3l2.9 9h-1.5l-2.9-9h-5.1v-1.4zm-.8 10.4h-1.4V8.4h10.6c.9 0 1.6.3 2.3 1 .6.5 1 1.2 1 2 0 2.3-1.1 3.4-3.3 3.4h-8.4v-1.4h8.4c.6 0 1-.1 1.3-.4.4-.3.5-.8.5-1.6 0-.4-.2-.8-.5-1.1a1.8 1.8 0 00-1.3-.5H109v22.4zm37.8-9.4l.5-1.4h4.8l.6 1.4h-6zm-1.1 2.8l.5-1.4h7l.6 1.4h-8.1zm-1.1 2.8l.5-1.4h9.2l.6 1.4h-10.3zm-11.4 3.8h-1.5L144.4 0h1.5l12.8 32.2h-1.5L145.2 2l-12 30.3zm12.2-27L146 7l-10 25.2h-1.4l10.7-27zm1.5 3.7l.7 2-8.4 21.4h-1.5l9.2-23.4zm1.5 3.9l.7 2-6.9 17.4h-1.5l7.7-19.4zm19.3 19.4h-1.5L153.5 0h1.5l12.7 32.2zM152 0l12.8 32.2h-1.5L150.4 0h1.5zm-3 0l12.8 32.2h-1.5L147.4 0h1.5zm29.7 0h1.4v32.2h-1.4V0zm-2.8 0h1.4v32.2h-1.4V0zM173 0h1.4v32.2H173V0zm-2.8 0h1.4v32.2h-1.4V0zm36.4 16.7l-1.4-2.3V0h1.4v16.7zm2.8 4.6L208 19V0h1.4v21.3zm2.8 4.7l-1.4-2.4V0h1.4v26zM192 15.5l1.4 2.3v14.4h-1.4V15.5zm-2.8-4.6l1.4 2.4v19h-1.4V10.8zm-2.8-4.6l1.4 2.3v23.6h-1.4v-26zM187 0h1.6l19.8 32.2h-1.6L187 0zm3.3 0h1.6l19.8 32.2h-1.6L190.3 0zm3.3 0h1.6l18.4 30V0h1.4v32.2h-1.7L193.6 0zM185 2.3v30h-1.4V0h1.7L205 32.2h-1.6l-18.4-30z" fill="#fff"/></svg>