<svg width="213" height="52" fill="none" xmlns="http://www.w3.org/2000/svg"><path d="M80.13 26.27c0-6.52-1.86-9.86-5.58-10.05-1.48-.07-2.92.17-4.33.72-1.12.4-1.87.8-2.27 1.2v15.55c2.38 1.49 4.49 2.18 6.33 2.07 3.9-.25 5.84-3.42 5.84-9.5zm4.58.27c0 3.3-.78 6.06-2.34 8.24a8.62 8.62 0 01-7.24 3.82c-2.32.07-4.72-.66-7.18-2.18v14.13l-3.99-1.42V17.75c.66-.8 1.5-1.49 2.52-2.07 2.37-1.38 5.26-2.1 8.65-2.13l.06.06a7.94 7.94 0 017.17 3.81c1.56 2.37 2.35 5.4 2.35 9.12zm24.37 9.28c0 4.44-.45 7.51-1.34 9.22-.89 1.7-2.6 3.07-5.1 4.09-2.04.8-4.25 1.24-6.6 1.31l-.67-2.5c2.4-.34 4.1-.66 5.08-.99 1.93-.65 3.26-1.66 3.99-3 .58-1.1.87-3.18.87-6.28v-1.03a20.48 20.48 0 01-8.57 1.85c-1.97 0-3.7-.62-5.19-1.85a6.3 6.3 0 01-2.51-5.13V14.9l3.98-1.36v16.7c0 1.78.58 3.16 1.73 4.12a6.53 6.53 0 004.47 1.4c1.83-.05 3.79-.75 5.87-2.14V14.15h3.99v21.67zm15.56 2.56c-.43.04-.87.06-1.3.06-2.27 0-4.02-.54-5.28-1.62a5.57 5.57 0 01-1.88-4.46v-15.7h-2.73v-2.5h2.73V7.48l3.98-1.41v8.07h4.48v2.51h-4.48v15.6c0 1.49.4 2.55 1.2 3.17.7.5 1.8.8 3.28.87v2.08zm24.15-.33h-4V22.67c0-1.57-.36-2.92-1.09-4.04a3.98 3.98 0 00-3.5-1.91c-1.84 0-4.12.96-6.87 2.89v18.44h-3.98V1.27l3.98-1.25v16.75a13.9 13.9 0 018.36-2.78c2.11 0 3.82.7 5.13 2.13a7.5 7.5 0 011.97 5.29v16.64zm21.19-12.41c0-2.5-.48-4.57-1.42-6.2a5.95 5.95 0 00-5.24-3.16c-4.37.25-6.56 3.39-6.56 9.39 0 2.75.46 5.05 1.37 6.9 1.17 2.34 2.93 3.5 5.27 3.46 4.38-.03 6.58-3.5 6.58-10.39zm4.37.03c0 3.56-.92 6.53-2.73 8.9-2 2.65-4.77 3.98-8.3 3.98-3.5 0-6.23-1.34-8.2-3.99-1.78-2.36-2.67-5.33-2.67-8.9 0-3.34.96-6.16 2.9-8.45a9.97 9.97 0 018.02-3.66c3.31 0 6 1.22 8.08 3.66a12.7 12.7 0 012.9 8.46zm22.86 12.38h-4V21.8c0-1.78-.53-3.17-1.6-4.17a5.85 5.85 0 00-4.3-1.45c-1.88.04-3.69.66-5.4 1.86v20.02h-3.98V17.53c2.3-1.67 4.4-2.76 6.33-3.27 1.82-.47 3.43-.7 4.8-.7.95 0 1.85.08 2.68.27a7.7 7.7 0 013.82 2.01 5.34 5.34 0 011.65 3.93v18.28z" fill="#fff"/><path d="M24.58 1.42c-2.05.01-4.01.19-5.73.49-5.08.9-6 2.77-6 6.24v4.57h12v1.52H8.35c-3.5 0-6.55 2.1-7.5 6.09-1.1 4.57-1.16 7.42 0 12.19.85 3.55 2.89 6.08 6.37 6.08h4.13v-5.48a7.62 7.62 0 017.5-7.45h11.98c3.34 0 6-2.75 6-6.1V8.15c0-3.25-2.74-5.7-6-6.24-2.06-.34-4.2-.5-6.25-.49zM18.09 5.1a2.28 2.28 0 012.25 2.3 2.27 2.27 0 01-2.25 2.27 2.26 2.26 0 01-2.25-2.28c0-1.26 1-2.3 2.25-2.3z" fill="url(#paint0_linear)"/><path d="M38.33 14.24v5.33a7.7 7.7 0 01-7.5 7.6H18.85c-3.29 0-6 2.82-6 6.1V44.7c0 3.25 2.82 5.16 6 6.1a20.08 20.08 0 0011.98 0c3.02-.88 6-2.64 6-6.1v-4.58H24.85V38.6h17.98c3.49 0 4.79-2.43 6-6.08 1.26-3.76 1.2-7.37 0-12.2-.86-3.47-2.5-6.08-6-6.08h-4.5zm-6.74 28.93a2.26 2.26 0 012.25 2.28c0 1.27-1 2.3-2.25 2.3a2.28 2.28 0 01-2.25-2.3 2.27 2.27 0 012.25-2.28z" fill="url(#paint1_linear)"/><path d="M204.97 10.6h.7V6.22h1.65v-.53h-4v.53h1.65v4.38zm2.97 0h.6v-4l1.3 4h.66l1.35-4v4h.66V5.7h-.87l-1.47 4.2-1.26-4.2h-.97v4.9z" fill="#fff"/><defs><linearGradient id="paint0_linear" x1="-1.18" y1="2.85" x2="26.48" y2="26.43" gradientUnits="userSpaceOnUse"><stop stop-color="#5A9FD4"/><stop offset="1" stop-color="#306998"/></linearGradient><linearGradient id="paint1_linear" x1="36.87" y1="41.11" x2="26.95" y2="27.2" gradientUnits="userSpaceOnUse"><stop stop-color="#FFD43B"/><stop offset="1" stop-color="#FFE873"/></linearGradient></defs></svg>